<?xml version="1.0" encoding="UTF-8" standalone="no"?>
<!DOCTYPE svg PUBLIC "-//W3C//DTD SVG 1.1//EN"
 "http://www.w3.org/Graphics/SVG/1.1/DTD/svg11.dtd">
<!-- Generated by graphviz version 2.47.3 (20210619.1520)
 -->
<!-- Title: dependencies Pages: 1 -->
<svg width="643pt" height="174pt"
 viewBox="0.00 0.00 643.00 173.80" xmlns="http://www.w3.org/2000/svg" xmlns:xlink="http://www.w3.org/1999/xlink">
<g id="graph0" class="graph" transform="scale(1 1) rotate(0) translate(4 169.8)">
<title>dependencies</title>
<polygon fill="white" stroke="transparent" points="-4,4 -4,-169.8 639,-169.8 639,4 -4,4"/>
<text text-anchor="middle" x="317.5" y="-8.2" font-family="sans-serif" font-size="14.00">dependencies</text>
<g id="clust1" class="cluster">
<title>cluster_PaymentModule</title>
<polygon fill="none" stroke="black" stroke-dasharray="1,5" points="8,-32.8 8,-157.8 627,-157.8 627,-32.8 8,-32.8"/>
</g>
<g id="clust6" class="cluster">
<title>cluster_PaymentModule_providers</title>
<polygon fill="none" stroke="black" points="16,-40.8 16,-92.8 619,-92.8 619,-40.8 16,-40.8"/>
</g>
<!-- MovieService -->
<g id="node1" class="node">
<title>MovieService</title>
<ellipse fill="#fdb462" stroke="black" cx="546" cy="-66.8" rx="65.41" ry="18"/>
<text text-anchor="middle" x="546" y="-62.6" font-family="Times,serif" font-size="14.00">MovieService</text>
</g>
<!-- PaymentModule -->
<g id="node5" class="node">
<title>PaymentModule</title>
<polygon fill="#8dd3c7" stroke="black" points="362.04,-149.8 359.04,-153.8 338.04,-153.8 335.04,-149.8 253.96,-149.8 253.96,-113.8 362.04,-113.8 362.04,-149.8"/>
<text text-anchor="middle" x="308" y="-127.6" font-family="Times,serif" font-size="14.00">PaymentModule</text>
</g>
<!-- MovieService&#45;&gt;PaymentModule -->
<g id="edge1" class="edge">
<title>MovieService&#45;&gt;PaymentModule</title>
<path fill="none" stroke="black" d="M546,-84.91C546,-104.14 546,-131.8 546,-131.8 546,-131.8 372.3,-131.8 372.3,-131.8"/>
<polygon fill="black" stroke="black" points="372.3,-128.3 362.3,-131.8 372.3,-135.3 372.3,-128.3"/>
</g>
<!-- PaymentService -->
<g id="node2" class="node">
<title>PaymentService</title>
<ellipse fill="#fdb462" stroke="black" cx="389" cy="-66.8" rx="73.57" ry="18"/>
<text text-anchor="middle" x="389" y="-62.6" font-family="Times,serif" font-size="14.00">PaymentService</text>
</g>
<!-- PaymentService&#45;&gt;PaymentModule -->
<g id="edge2" class="edge">
<title>PaymentService&#45;&gt;PaymentModule</title>
<path fill="none" stroke="black" d="M338.74,-80.27C338.74,-80.27 338.74,-103.66 338.74,-103.66"/>
<polygon fill="black" stroke="black" points="335.24,-103.66 338.74,-113.66 342.24,-103.66 335.24,-103.66"/>
</g>
<!-- TheatreService -->
<g id="node3" class="node">
<title>TheatreService</title>
<ellipse fill="#fdb462" stroke="black" cx="228" cy="-66.8" rx="69.46" ry="18"/>
<text text-anchor="middle" x="228" y="-62.6" font-family="Times,serif" font-size="14.00">TheatreService</text>
</g>
<!-- TheatreService&#45;&gt;PaymentModule -->
<g id="edge3" class="edge">
<title>TheatreService&#45;&gt;PaymentModule</title>
<path fill="none" stroke="black" d="M275.6,-79.95C275.6,-79.95 275.6,-103.49 275.6,-103.49"/>
<polygon fill="black" stroke="black" points="272.1,-103.49 275.6,-113.49 279.1,-103.49 272.1,-103.49"/>
</g>
<!-- UserService -->
<g id="node4" class="node">
<title>UserService</title>
<ellipse fill="#fdb462" stroke="black" cx="82" cy="-66.8" rx="58.44" ry="18"/>
<text text-anchor="middle" x="82" y="-62.6" font-family="Times,serif" font-size="14.00">UserService</text>
</g>
<!-- UserService&#45;&gt;PaymentModule -->
<g id="edge4" class="edge">
<title>UserService&#45;&gt;PaymentModule</title>
<path fill="none" stroke="black" d="M82,-84.91C82,-104.14 82,-131.8 82,-131.8 82,-131.8 243.87,-131.8 243.87,-131.8"/>
<polygon fill="black" stroke="black" points="243.87,-135.3 253.87,-131.8 243.87,-128.3 243.87,-135.3"/>
</g>
</g>
</svg>
