<?xml version="1.0" encoding="UTF-8" standalone="no"?>
<!DOCTYPE svg PUBLIC "-//W3C//DTD SVG 1.1//EN"
 "http://www.w3.org/Graphics/SVG/1.1/DTD/svg11.dtd">
<!-- Generated by graphviz version 2.47.3 (20210619.1520)
 -->
<!-- Title: dependencies Pages: 1 -->
<svg width="640pt" height="174pt"
 viewBox="0.00 0.00 640.00 173.80" xmlns="http://www.w3.org/2000/svg" xmlns:xlink="http://www.w3.org/1999/xlink">
<g id="graph0" class="graph" transform="scale(1 1) rotate(0) translate(4 169.8)">
<title>dependencies</title>
<polygon fill="white" stroke="transparent" points="-4,4 -4,-169.8 636,-169.8 636,4 -4,4"/>
<text text-anchor="middle" x="316" y="-8.2" font-family="sans-serif" font-size="14.00">dependencies</text>
<g id="clust1" class="cluster">
<title>cluster_AppModule</title>
<polygon fill="none" stroke="black" stroke-dasharray="1,5" points="8,-32.8 8,-157.8 624,-157.8 624,-32.8 8,-32.8"/>
</g>
<g id="clust6" class="cluster">
<title>cluster_AppModule_providers</title>
<polygon fill="none" stroke="black" points="486,-40.8 486,-92.8 616,-92.8 616,-40.8 486,-40.8"/>
</g>
<g id="clust3" class="cluster">
<title>cluster_AppModule_imports</title>
<polygon fill="none" stroke="black" points="16,-40.8 16,-92.8 478,-92.8 478,-40.8 16,-40.8"/>
</g>
<!-- MovieModule -->
<g id="node1" class="node">
<title>MovieModule</title>
<polygon fill="#8dd3c7" stroke="black" points="470.1,-84.8 467.1,-88.8 446.1,-88.8 443.1,-84.8 373.9,-84.8 373.9,-48.8 470.1,-48.8 470.1,-84.8"/>
<text text-anchor="middle" x="422" y="-62.6" font-family="Times,serif" font-size="14.00">MovieModule</text>
</g>
<!-- AppModule -->
<g id="node5" class="node">
<title>AppModule</title>
<polygon fill="#8dd3c7" stroke="black" points="343.66,-149.8 340.66,-153.8 319.66,-153.8 316.66,-149.8 260.34,-149.8 260.34,-113.8 343.66,-113.8 343.66,-149.8"/>
<text text-anchor="middle" x="302" y="-127.6" font-family="Times,serif" font-size="14.00">AppModule</text>
</g>
<!-- MovieModule&#45;&gt;AppModule -->
<g id="edge1" class="edge">
<title>MovieModule&#45;&gt;AppModule</title>
<path fill="none" stroke="black" d="M422,-84.82C422,-102.17 422,-125.8 422,-125.8 422,-125.8 353.97,-125.8 353.97,-125.8"/>
<polygon fill="black" stroke="black" points="353.97,-122.3 343.97,-125.8 353.97,-129.3 353.97,-122.3"/>
</g>
<!-- PaymentModule -->
<g id="node2" class="node">
<title>PaymentModule</title>
<polygon fill="#8dd3c7" stroke="black" points="356.04,-84.8 353.04,-88.8 332.04,-88.8 329.04,-84.8 247.96,-84.8 247.96,-48.8 356.04,-48.8 356.04,-84.8"/>
<text text-anchor="middle" x="302" y="-62.6" font-family="Times,serif" font-size="14.00">PaymentModule</text>
</g>
<!-- PaymentModule&#45;&gt;AppModule -->
<g id="edge2" class="edge">
<title>PaymentModule&#45;&gt;AppModule</title>
<path fill="none" stroke="black" d="M302,-84.91C302,-84.91 302,-103.79 302,-103.79"/>
<polygon fill="black" stroke="black" points="298.5,-103.79 302,-113.79 305.5,-103.79 298.5,-103.79"/>
</g>
<!-- TheatreModule -->
<g id="node3" class="node">
<title>TheatreModule</title>
<polygon fill="#8dd3c7" stroke="black" points="230.3,-84.8 227.3,-88.8 206.3,-88.8 203.3,-84.8 127.7,-84.8 127.7,-48.8 230.3,-48.8 230.3,-84.8"/>
<text text-anchor="middle" x="179" y="-62.6" font-family="Times,serif" font-size="14.00">TheatreModule</text>
</g>
<!-- TheatreModule&#45;&gt;AppModule -->
<g id="edge3" class="edge">
<title>TheatreModule&#45;&gt;AppModule</title>
<path fill="none" stroke="black" d="M179,-84.82C179,-102.17 179,-125.8 179,-125.8 179,-125.8 250.01,-125.8 250.01,-125.8"/>
<polygon fill="black" stroke="black" points="250.01,-129.3 260.01,-125.8 250.01,-122.3 250.01,-129.3"/>
</g>
<!-- UserModule -->
<g id="node4" class="node">
<title>UserModule</title>
<polygon fill="#8dd3c7" stroke="black" points="109.98,-84.8 106.98,-88.8 85.98,-88.8 82.98,-84.8 24.02,-84.8 24.02,-48.8 109.98,-48.8 109.98,-84.8"/>
<text text-anchor="middle" x="67" y="-62.6" font-family="Times,serif" font-size="14.00">UserModule</text>
</g>
<!-- UserModule&#45;&gt;AppModule -->
<g id="edge4" class="edge">
<title>UserModule&#45;&gt;AppModule</title>
<path fill="none" stroke="black" d="M67,-85.08C67,-106.12 67,-137.8 67,-137.8 67,-137.8 250.26,-137.8 250.26,-137.8"/>
<polygon fill="black" stroke="black" points="250.26,-141.3 260.26,-137.8 250.26,-134.3 250.26,-141.3"/>
</g>
<!-- AppService -->
<g id="node6" class="node">
<title>AppService</title>
<ellipse fill="#fdb462" stroke="black" cx="551" cy="-66.8" rx="56.74" ry="18"/>
<text text-anchor="middle" x="551" y="-62.6" font-family="Times,serif" font-size="14.00">AppService</text>
</g>
<!-- AppService&#45;&gt;AppModule -->
<g id="edge5" class="edge">
<title>AppService&#45;&gt;AppModule</title>
<path fill="none" stroke="black" d="M551,-85.08C551,-106.12 551,-137.8 551,-137.8 551,-137.8 353.68,-137.8 353.68,-137.8"/>
<polygon fill="black" stroke="black" points="353.68,-134.3 343.68,-137.8 353.68,-141.3 353.68,-134.3"/>
</g>
</g>
</svg>
