<?xml version="1.0" encoding="UTF-8" standalone="no"?>
<!DOCTYPE svg PUBLIC "-//W3C//DTD SVG 1.1//EN"
 "http://www.w3.org/Graphics/SVG/1.1/DTD/svg11.dtd">
<!-- Generated by graphviz version 2.47.3 (20210619.1520)
 -->
<!-- Title: dependencies Pages: 1 -->
<svg width="343pt" height="174pt"
 viewBox="0.00 0.00 343.00 173.80" xmlns="http://www.w3.org/2000/svg" xmlns:xlink="http://www.w3.org/1999/xlink">
<g id="graph0" class="graph" transform="scale(1 1) rotate(0) translate(4 169.8)">
<title>dependencies</title>
<polygon fill="white" stroke="transparent" points="-4,4 -4,-169.8 339,-169.8 339,4 -4,4"/>
<text text-anchor="middle" x="167.5" y="-8.2" font-family="sans-serif" font-size="14.00">dependencies</text>
<g id="clust1" class="cluster">
<title>cluster_MovieModule</title>
<polygon fill="none" stroke="black" stroke-dasharray="1,5" points="8,-32.8 8,-157.8 327,-157.8 327,-32.8 8,-32.8"/>
</g>
<g id="clust6" class="cluster">
<title>cluster_MovieModule_providers</title>
<polygon fill="none" stroke="black" points="16,-40.8 16,-92.8 319,-92.8 319,-40.8 16,-40.8"/>
</g>
<!-- MovieService -->
<g id="node1" class="node">
<title>MovieService</title>
<ellipse fill="#fdb462" stroke="black" cx="246" cy="-66.8" rx="65.41" ry="18"/>
<text text-anchor="middle" x="246" y="-62.6" font-family="Times,serif" font-size="14.00">MovieService</text>
</g>
<!-- MovieModule -->
<g id="node3" class="node">
<title>MovieModule</title>
<polygon fill="#8dd3c7" stroke="black" points="217.1,-149.8 214.1,-153.8 193.1,-153.8 190.1,-149.8 120.9,-149.8 120.9,-113.8 217.1,-113.8 217.1,-149.8"/>
<text text-anchor="middle" x="169" y="-127.6" font-family="Times,serif" font-size="14.00">MovieModule</text>
</g>
<!-- MovieService&#45;&gt;MovieModule -->
<g id="edge1" class="edge">
<title>MovieService&#45;&gt;MovieModule</title>
<path fill="none" stroke="black" d="M198.92,-79.33C198.92,-79.33 198.92,-103.65 198.92,-103.65"/>
<polygon fill="black" stroke="black" points="195.42,-103.65 198.92,-113.65 202.42,-103.65 195.42,-103.65"/>
</g>
<!-- TheatreService -->
<g id="node2" class="node">
<title>TheatreService</title>
<ellipse fill="#fdb462" stroke="black" cx="93" cy="-66.8" rx="69.46" ry="18"/>
<text text-anchor="middle" x="93" y="-62.6" font-family="Times,serif" font-size="14.00">TheatreService</text>
</g>
<!-- TheatreService&#45;&gt;MovieModule -->
<g id="edge2" class="edge">
<title>TheatreService&#45;&gt;MovieModule</title>
<path fill="none" stroke="black" d="M141.71,-79.64C141.71,-79.64 141.71,-103.32 141.71,-103.32"/>
<polygon fill="black" stroke="black" points="138.21,-103.32 141.71,-113.32 145.21,-103.32 138.21,-103.32"/>
</g>
</g>
</svg>
