<?xml version="1.0" encoding="UTF-8" standalone="no"?>
<!DOCTYPE svg PUBLIC "-//W3C//DTD SVG 1.1//EN"
 "http://www.w3.org/Graphics/SVG/1.1/DTD/svg11.dtd">
<!-- Generated by graphviz version 2.47.3 (20210619.1520)
 -->
<!-- Title: dependencies Pages: 1 -->
<svg width="767pt" height="250pt"
 viewBox="0.00 0.00 767.00 249.80" xmlns="http://www.w3.org/2000/svg" xmlns:xlink="http://www.w3.org/1999/xlink">
<g id="graph0" class="graph" transform="scale(1 1) rotate(0) translate(4 245.8)">
<title>dependencies</title>
<polygon fill="white" stroke="transparent" points="-4,4 -4,-245.8 763,-245.8 763,4 -4,4"/>
<text text-anchor="middle" x="379.5" y="-8.2" font-family="sans-serif" font-size="14.00">dependencies</text>
<g id="clust1" class="cluster">
<title>cluster_AppModule</title>
<polygon fill="none" stroke="black" stroke-dasharray="1,5" points="8,-108.8 8,-233.8 624,-233.8 624,-108.8 8,-108.8"/>
</g>
<g id="clust3" class="cluster">
<title>cluster_AppModule_imports</title>
<polygon fill="none" stroke="black" points="154,-116.8 154,-168.8 616,-168.8 616,-116.8 154,-116.8"/>
</g>
<g id="clust6" class="cluster">
<title>cluster_AppModule_providers</title>
<polygon fill="none" stroke="black" points="16,-116.8 16,-168.8 146,-168.8 146,-116.8 16,-116.8"/>
</g>
<g id="clust7" class="cluster">
<title>cluster_MovieModule</title>
<polygon fill="none" stroke="black" stroke-dasharray="1,5" points="110,-32.8 110,-100.8 429,-100.8 429,-32.8 110,-32.8"/>
</g>
<g id="clust12" class="cluster">
<title>cluster_MovieModule_providers</title>
<polygon fill="none" stroke="black" points="118,-40.8 118,-92.8 421,-92.8 421,-40.8 118,-40.8"/>
</g>
<g id="clust13" class="cluster">
<title>cluster_PaymentModule</title>
<polygon fill="none" stroke="black" stroke-dasharray="1,5" points="437,-32.8 437,-100.8 751,-100.8 751,-32.8 437,-32.8"/>
</g>
<g id="clust18" class="cluster">
<title>cluster_PaymentModule_providers</title>
<polygon fill="none" stroke="black" points="445,-40.8 445,-92.8 743,-92.8 743,-40.8 445,-40.8"/>
</g>
<!-- MovieModule -->
<g id="node1" class="node">
<title>MovieModule</title>
<polygon fill="#8dd3c7" stroke="black" points="378.1,-160.8 375.1,-164.8 354.1,-164.8 351.1,-160.8 281.9,-160.8 281.9,-124.8 378.1,-124.8 378.1,-160.8"/>
<text text-anchor="middle" x="330" y="-138.6" font-family="Times,serif" font-size="14.00">MovieModule</text>
</g>
<!-- AppModule -->
<g id="node5" class="node">
<title>AppModule</title>
<polygon fill="#8dd3c7" stroke="black" points="371.66,-225.8 368.66,-229.8 347.66,-229.8 344.66,-225.8 288.34,-225.8 288.34,-189.8 371.66,-189.8 371.66,-225.8"/>
<text text-anchor="middle" x="330" y="-203.6" font-family="Times,serif" font-size="14.00">AppModule</text>
</g>
<!-- MovieModule&#45;&gt;AppModule -->
<g id="edge1" class="edge">
<title>MovieModule&#45;&gt;AppModule</title>
<path fill="none" stroke="black" d="M330,-160.91C330,-160.91 330,-179.79 330,-179.79"/>
<polygon fill="black" stroke="black" points="326.5,-179.79 330,-189.79 333.5,-179.79 326.5,-179.79"/>
</g>
<!-- PaymentModule -->
<g id="node2" class="node">
<title>PaymentModule</title>
<polygon fill="#8dd3c7" stroke="black" points="504.04,-160.8 501.04,-164.8 480.04,-164.8 477.04,-160.8 395.96,-160.8 395.96,-124.8 504.04,-124.8 504.04,-160.8"/>
<text text-anchor="middle" x="450" y="-138.6" font-family="Times,serif" font-size="14.00">PaymentModule</text>
</g>
<!-- PaymentModule&#45;&gt;AppModule -->
<g id="edge2" class="edge">
<title>PaymentModule&#45;&gt;AppModule</title>
<path fill="none" stroke="black" d="M450,-160.82C450,-178.17 450,-201.8 450,-201.8 450,-201.8 381.97,-201.8 381.97,-201.8"/>
<polygon fill="black" stroke="black" points="381.97,-198.3 371.97,-201.8 381.97,-205.3 381.97,-198.3"/>
</g>
<!-- TheatreModule -->
<g id="node3" class="node">
<title>TheatreModule</title>
<polygon fill="#8dd3c7" stroke="black" points="264.3,-160.8 261.3,-164.8 240.3,-164.8 237.3,-160.8 161.7,-160.8 161.7,-124.8 264.3,-124.8 264.3,-160.8"/>
<text text-anchor="middle" x="213" y="-138.6" font-family="Times,serif" font-size="14.00">TheatreModule</text>
</g>
<!-- TheatreModule&#45;&gt;AppModule -->
<g id="edge3" class="edge">
<title>TheatreModule&#45;&gt;AppModule</title>
<path fill="none" stroke="black" d="M213,-160.82C213,-178.17 213,-201.8 213,-201.8 213,-201.8 278.09,-201.8 278.09,-201.8"/>
<polygon fill="black" stroke="black" points="278.09,-205.3 288.09,-201.8 278.09,-198.3 278.09,-205.3"/>
</g>
<!-- UserModule -->
<g id="node4" class="node">
<title>UserModule</title>
<polygon fill="#8dd3c7" stroke="black" points="607.98,-160.8 604.98,-164.8 583.98,-164.8 580.98,-160.8 522.02,-160.8 522.02,-124.8 607.98,-124.8 607.98,-160.8"/>
<text text-anchor="middle" x="565" y="-138.6" font-family="Times,serif" font-size="14.00">UserModule</text>
</g>
<!-- UserModule&#45;&gt;AppModule -->
<g id="edge4" class="edge">
<title>UserModule&#45;&gt;AppModule</title>
<path fill="none" stroke="black" d="M565,-161.08C565,-182.12 565,-213.8 565,-213.8 565,-213.8 381.74,-213.8 381.74,-213.8"/>
<polygon fill="black" stroke="black" points="381.74,-210.3 371.74,-213.8 381.74,-217.3 381.74,-210.3"/>
</g>
<!-- AppService -->
<g id="node6" class="node">
<title>AppService</title>
<ellipse fill="#fdb462" stroke="black" cx="81" cy="-142.8" rx="56.74" ry="18"/>
<text text-anchor="middle" x="81" y="-138.6" font-family="Times,serif" font-size="14.00">AppService</text>
</g>
<!-- AppService&#45;&gt;AppModule -->
<g id="edge5" class="edge">
<title>AppService&#45;&gt;AppModule</title>
<path fill="none" stroke="black" d="M81,-161.08C81,-182.12 81,-213.8 81,-213.8 81,-213.8 278.32,-213.8 278.32,-213.8"/>
<polygon fill="black" stroke="black" points="278.32,-217.3 288.32,-213.8 278.32,-210.3 278.32,-217.3"/>
</g>
<!-- MovieService -->
<g id="node7" class="node">
<title>MovieService</title>
<ellipse fill="#fdb462" stroke="black" cx="348" cy="-66.8" rx="65.41" ry="18"/>
<text text-anchor="middle" x="348" y="-62.6" font-family="Times,serif" font-size="14.00">MovieService</text>
</g>
<!-- MovieService&#45;&gt;MovieModule -->
<g id="edge6" class="edge">
<title>MovieService&#45;&gt;MovieModule</title>
<path fill="none" stroke="black" d="M330.42,-84.43C330.42,-84.43 330.42,-114.74 330.42,-114.74"/>
<polygon fill="black" stroke="black" points="326.92,-114.74 330.42,-124.74 333.92,-114.74 326.92,-114.74"/>
</g>
<!-- MovieService&#45;&gt;PaymentModule -->
<g id="edge8" class="edge">
<title>MovieService&#45;&gt;PaymentModule</title>
<path fill="none" stroke="black" d="M407.38,-74.37C407.38,-74.37 407.38,-114.68 407.38,-114.68"/>
<polygon fill="black" stroke="black" points="403.88,-114.68 407.38,-124.68 410.88,-114.68 403.88,-114.68"/>
</g>
<!-- TheatreService -->
<g id="node8" class="node">
<title>TheatreService</title>
<ellipse fill="#fdb462" stroke="black" cx="195" cy="-66.8" rx="69.46" ry="18"/>
<text text-anchor="middle" x="195" y="-62.6" font-family="Times,serif" font-size="14.00">TheatreService</text>
</g>
<!-- TheatreService&#45;&gt;MovieModule -->
<g id="edge7" class="edge">
<title>TheatreService&#45;&gt;MovieModule</title>
<path fill="none" stroke="black" d="M264.55,-66.8C269.86,-66.8 273.21,-66.8 273.21,-66.8 273.21,-66.8 273.21,-142.8 273.21,-142.8 273.21,-142.8 274.05,-142.8 274.05,-142.8"/>
<polygon fill="black" stroke="black" points="271.59,-146.3 281.59,-142.8 271.59,-139.3 271.59,-146.3"/>
</g>
<!-- TheatreService&#45;&gt;PaymentModule -->
<g id="edge10" class="edge">
<title>TheatreService&#45;&gt;PaymentModule</title>
<path fill="none" stroke="black" d="M230.05,-82.43C230.05,-90.55 230.05,-98.8 230.05,-98.8 230.05,-98.8 401.55,-98.8 401.55,-98.8 401.55,-98.8 401.55,-114.65 401.55,-114.65"/>
<polygon fill="black" stroke="black" points="398.05,-114.65 401.55,-124.65 405.05,-114.65 398.05,-114.65"/>
</g>
<!-- TheatreService&#45;&gt;TheatreModule -->
<g id="edge12" class="edge">
<title>TheatreService&#45;&gt;TheatreModule</title>
<path fill="none" stroke="black" d="M195.95,-84.81C195.95,-84.81 195.95,-114.65 195.95,-114.65"/>
<polygon fill="black" stroke="black" points="192.45,-114.65 195.95,-124.65 199.45,-114.65 192.45,-114.65"/>
</g>
<!-- PaymentService -->
<g id="node9" class="node">
<title>PaymentService</title>
<ellipse fill="#fdb462" stroke="black" cx="527" cy="-66.8" rx="73.57" ry="18"/>
<text text-anchor="middle" x="527" y="-62.6" font-family="Times,serif" font-size="14.00">PaymentService</text>
</g>
<!-- PaymentService&#45;&gt;PaymentModule -->
<g id="edge9" class="edge">
<title>PaymentService&#45;&gt;PaymentModule</title>
<path fill="none" stroke="black" d="M470.23,-78.34C470.23,-78.34 470.23,-114.63 470.23,-114.63"/>
<polygon fill="black" stroke="black" points="466.73,-114.63 470.23,-124.63 473.73,-114.63 466.73,-114.63"/>
</g>
<!-- UserService -->
<g id="node10" class="node">
<title>UserService</title>
<ellipse fill="#fdb462" stroke="black" cx="677" cy="-66.8" rx="58.44" ry="18"/>
<text text-anchor="middle" x="677" y="-62.6" font-family="Times,serif" font-size="14.00">UserService</text>
</g>
<!-- UserService&#45;&gt;PaymentModule -->
<g id="edge11" class="edge">
<title>UserService&#45;&gt;PaymentModule</title>
<path fill="none" stroke="black" d="M677,-84.84C677,-97.36 677,-111.8 677,-111.8 677,-111.8 487.25,-111.8 487.25,-111.8 487.25,-111.8 487.25,-114.77 487.25,-114.77"/>
<polygon fill="black" stroke="black" points="483.75,-114.77 487.25,-124.77 490.75,-114.77 483.75,-114.77"/>
</g>
<!-- UserService&#45;&gt;UserModule -->
<g id="edge13" class="edge">
<title>UserService&#45;&gt;UserModule</title>
<path fill="none" stroke="black" d="M618.73,-66.8C610.29,-66.8 604.39,-66.8 604.39,-66.8 604.39,-66.8 604.39,-114.79 604.39,-114.79"/>
<polygon fill="black" stroke="black" points="600.89,-114.79 604.39,-124.79 607.89,-114.79 600.89,-114.79"/>
</g>
</g>
</svg>
